<svg width="20" height="20" viewBox="0 0 20 20" fill="none" xmlns="http://www.w3.org/2000/svg">
<path fill-rule="evenodd" clip-rule="evenodd" d="M9.16676 2.65832C9.22433 2.47578 9.33858 2.31635 9.49294 2.20318C9.64729 2.09001 9.8337 2.02899 10.0251 2.02899C10.2165 2.02899 10.4029 2.09001 10.5573 2.20318C10.7116 2.31635 10.8259 2.47578 10.8834 2.65832L12.4334 7.42498H17.4334C17.6317 7.41749 17.8269 7.4751 17.9893 7.58902C18.1517 7.70293 18.2724 7.86689 18.3329 8.05583C18.3933 8.24478 18.3903 8.44832 18.3242 8.63536C18.2581 8.82241 18.1325 8.98266 17.9668 9.09165L13.9084 12.0333L15.4584 16.8083C15.5197 16.9902 15.5213 17.1869 15.4628 17.3698C15.4044 17.5526 15.2891 17.7119 15.1336 17.8246C14.9782 17.9372 14.7908 17.9972 14.5989 17.9957C14.407 17.9943 14.2205 17.9316 14.0668 17.8167L10.0001 14.8417L5.94176 17.7917C5.78802 17.9066 5.60157 17.9693 5.40963 17.9707C5.2177 17.9722 5.03034 17.9122 4.87491 17.7996C4.71948 17.6869 4.60412 17.5276 4.54569 17.3448C4.48725 17.1619 4.4888 16.9652 4.5501 16.7833L6.1001 12.0083L2.04176 9.06665C1.876 8.95766 1.75047 8.79741 1.68437 8.61036C1.61826 8.42332 1.6152 8.21978 1.67566 8.03083C1.73612 7.84189 1.85678 7.67793 2.0192 7.56402C2.18161 7.4501 2.37686 7.39249 2.5751 7.39998H7.5751L9.16676 2.65832Z" stroke="#90A3BF" stroke-width="1.5" stroke-linecap="round" stroke-linejoin="round"/>
</svg>
