<svg width="20" height="20" viewBox="0 0 20 20" fill="none" xmlns="http://www.w3.org/2000/svg">
<path fill-rule="evenodd" clip-rule="evenodd" d="M9.16664 2.65832C9.22421 2.47578 9.33846 2.31635 9.49281 2.20318C9.64717 2.09001 9.83358 2.02899 10.025 2.02899C10.2164 2.02899 10.4028 2.09001 10.5571 2.20318C10.7115 2.31635 10.8257 2.47578 10.8833 2.65832L12.4333 7.42498H17.4333C17.6315 7.41749 17.8268 7.4751 17.9892 7.58902C18.1516 7.70293 18.2723 7.86689 18.3327 8.05583C18.3932 8.24478 18.3902 8.44832 18.324 8.63536C18.2579 8.82241 18.1324 8.98266 17.9666 9.09165L13.9083 12.0333L15.4583 16.8083C15.5196 16.9902 15.5212 17.1869 15.4627 17.3698C15.4043 17.5526 15.2889 17.7119 15.1335 17.8246C14.9781 17.9372 14.7907 17.9972 14.5988 17.9957C14.4068 17.9943 14.2204 17.9316 14.0666 17.8167L9.99998 14.8417L5.94164 17.7917C5.7879 17.9066 5.60145 17.9693 5.40951 17.9707C5.21758 17.9721 5.03022 17.9122 4.87479 17.7996C4.71936 17.6869 4.604 17.5276 4.54557 17.3448C4.48713 17.1619 4.48868 16.9652 4.54998 16.7833L6.09998 12.0083L2.04164 9.06665C1.87588 8.95766 1.75035 8.79741 1.68424 8.61036C1.61813 8.42332 1.61508 8.21978 1.67554 8.03083C1.736 7.84189 1.85666 7.67793 2.01907 7.56402C2.18149 7.4501 2.37673 7.39249 2.57498 7.39998H7.57498L9.16664 2.65832Z" fill="#FBAD39"/>
</svg>
